# xmcd CD database file
#
# Track frame offsets:
#	150
#	117754
#	222854
#
# Disc length: 4484 seconds
#
# Revision: 0
# Processed by: cddbd v1.5.2PL0 Copyright (c) Steve Scherf et al.
# Submitted via: CDex 1.51
#
DISCID=22118203
DTITLE=Orin - Creating Money and Abundance
DYEAR=1900
DGENRE=New Age
TTITLE0=Releasing Doubts and Fears
TTITLE1=Aura Clearing, Energy, and Lightwork
TTITLE2=Success!!
EXTD=
EXTT0=
EXTT1=
EXTT2=
PLAYORDER=
